:FULLY-SPECIFIED
:FORCE-ALL-JOINTS-BE-3DOF
:DEGREES
1121
root 1.01751 14.5096 -28.7554 3.85381 -1.69161 2.98072
lfemur -34.9499 12.6959 -23.8382
ltibia 71.6838 -0 0
lfoot -24.3319 27.8806 -0.104591
ltoes -14.1313 0 0
rfemur -44.6384 -12.0286 14.0795
rtibia 92.1697 -0 0
rfoot -6.70027 -3.80991 0.297469
rtoes -12.5528 0 0
lowerback 14.2697 1.04296 -9.38868
upperback -0.86373 -0.0842586 1.47075
thorax -8.98278 0.453267 6.99893
lowerneck -5.49249 -0.905819 -3.32092
upperneck 3.95766 -1.13703 3.79258
head 2.55146 -0.565771 1.57324
lclavicle -4.25824e-14 -6.17803e-15 -5.34824e-30
lhumerus 48.0527 -25.1444 52.4156
lradius 87.5353 -0 0
lwrist 35.9076 0 0
lhand -29.4287 31.1487 -1.15636
lfingers 7.12502 -0 0
lthumb -2.76906 60.8488 -1.13314
rclavicle -4.25824e-14 -6.17803e-15 -5.34824e-30
rhumerus -19.537 28.6937 -78.0472
rradius 87.6803 -0 0
rwrist -33.3981 0 0
rhand -24.1056 -47.9003 -0.268946
rfingers 7.12502 -0 0
rthumb 2.37663 -77.6896 -0.268823
1122
root 0.975255 14.5042 -28.4959 3.47969 -0.419747 3.16635
lfemur -33.2397 12.5076 -23.3389
ltibia 71.0169 -0 0
lfoot -24.5732 28.1669 -0.113773
ltoes -14.1607 0 0
rfemur -44.7639 -12.0594 13.6069
rtibia 90.6454 -0 0
rfoot -6.25426 -3.3699 0.323604
rtoes -12.1434 0 0
lowerback 14.213 1.15603 -9.46802
upperback -0.824458 0.0501164 1.34604
thorax -8.9319 0.514077 6.87865
lowerneck -5.33275 -1.39952 -3.73782
upperneck 4.1642 -1.7955 4.16027
head 2.64893 -0.895307 1.71744
lclavicle -3.83551e-14 -5.34301e-15 -5.81725e-30
lhumerus 43.3644 -26.8386 54.3982
lradius 88.369 -0 0
lwrist 36.6427 0 0
lhand -28.6078 30.2204 -1.25852
lfingers 7.12502 -0 0
lthumb -1.97679 59.9063 -1.23325
rclavicle -3.83551e-14 -5.34301e-15 -5.81725e-30
rhumerus -15.1866 28.7506 -75.0234
rradius 87.8018 -0 0
rwrist -31.2853 0 0
rhand -24.7837 -47.6387 -0.292591
rfingers 7.12502 -0 0
rthumb 1.72197 -77.4187 -0.292455
1123
root 0.931523 14.4986 -28.2273 3.09676 0.897904 3.34976
lfemur -31.4728 12.2975 -22.8287
ltibia 70.3266 -0 0
lfoot -24.8228 28.4632 -0.122004
ltoes -14.1911 0 0
rfemur -44.8935 -12.0923 13.1179
rtibia 89.0677 -0 0
rfoot -5.79243 -2.91429 0.347047
rtoes -11.7196 0 0
lowerback 14.1542 1.27297 -9.55027
upperback -0.784119 0.189288 1.21706
thorax -8.87938 0.577129 6.75421
lowerneck -5.1636 -1.90927 -4.17087
upperneck 4.37362 -2.47841 4.53849
head 2.74892 -1.23653 1.86607
lclavicle -3.39798e-14 -4.47875e-15 -6.23781e-30
lhumerus 38.3715 -28.4302 56.6398
lradius 89.2318 -0 0
lwrist 37.4035 0 0
lhand -27.7566 29.2581 -1.35023
lfingers 7.12502 -0 0
lthumb -1.15511 58.9295 -1.32311
rclavicle -3.39798e-14 -4.47875e-15 -6.23781e-30
rhumerus -10.6887 28.5975 -71.8993
rradius 87.9275 -0 0
rwrist -29.0985 0 0
rhand -25.4857 -47.3676 -0.313802
rfingers 7.12502 -0 0
rthumb 1.04426 -77.1381 -0.313652
1124
root 0.886537 14.4928 -27.9509 2.70703 2.25453 3.52935
lfemur -29.6589 12.0655 -22.3116
ltibia 69.6165 -0 0
lfoot -25.0797 28.768 -0.129124
ltoes -14.2223 0 0
rfemur -45.0265 -12.1273 12.6149
rtibia 87.4448 -0 0
rfoot -5.31719 -2.44545 0.367327
rtoes -11.2837 0 0
lowerback 14.0935 1.39318 -9.63499
upperback -0.74295 0.332541 1.08449
thorax -8.8255 0.642105 6.62626
lowerneck -4.98552 -2.43227 -4.61805
upperneck 4.58444 -3.18229 4.92517
head 2.85086 -1.58779 2.01835
lclavicle -2.94792e-14 -3.58974e-15 -6.60155e-30
lhumerus 33.0883 -29.878 59.1373
lradius 90.1193 -0 0
lwrist 38.1861 0 0
lhand -26.8795 28.2669 -1.42963
lfingers 7.12502 -0 0
lthumb -0.308411 57.9234 -1.40091
rclavicle -2.94792e-14 -3.58974e-15 -6.60155e-30
rhumerus -6.09053 28.2169 -68.7181
rradius 88.0568 -0 0
rwrist -26.8491 0 0
rhand -26.2079 -47.0886 -0.332153
rfingers 7.12502 -0 0
rthumb 0.347058 -76.8492 -0.331992
1125
root 0.840524 14.4869 -27.6683 2.31233 3.64327 3.70368
lfemur -27.8076 11.8118 -21.7912
ltibia 68.8902 -0 0
lfoot -25.3424 29.0798 -0.134993
ltoes -14.2543 0 0
rfemur -45.1622 -12.1643 12.1004
rtibia 85.785 -0 0
rfoot -4.83098 -1.96577 0.384046
rtoes -10.8378 0 0
lowerback 14.0313 1.51604 -9.72179
upperback -0.701187 0.479154 0.949002
thorax -8.77053 0.708687 6.49546
lowerneck -4.79908 -2.96572 -5.07729
upperneck 4.7953 -3.90366 5.31828
head 2.95418 -1.94733 2.17349
lclavicle -2.48761e-14 -2.68048e-15 -6.90133e-30
lhumerus 27.538 -31.1414 61.8773
lradius 91.0271 -0 0
lwrist 38.9865 0 0
lhand -25.9811 27.2519 -1.49513
lfingers 7.12502 -0 0
lthumb 0.55888 56.8932 -1.46508
rclavicle -2.48761e-14 -2.68048e-15 -6.90133e-30
rhumerus -1.44128 27.5982 -65.5258
rradius 88.189 -0 0
rwrist -24.5485 0 0
rhand -26.9466 -46.803 -0.347282
rfingers 7.12502 -0 0
rthumb -0.366115 -76.5535 -0.347112
1126
root 0.793713 14.481 -27.3808 1.91441 5.05725 3.8715
lfemur -25.9286 11.5369 -21.2711
ltibia 68.1514 -0 0
lfoot -25.6097 29.397 -0.139496
ltoes -14.2868 0 0
rfemur -45.2999 -12.2031 11.5771
rtibia 84.0965 -0 0
rfoot -4.33622 -1.47765 0.396875
rtoes -10.3843 0 0
lowerback 13.9678 1.64092 -9.81023
upperback -0.659054 0.628408 0.811273
thorax -8.71477 0.77655 6.36246
lowerneck -4.60493 -3.50686 -5.54652
upperneck 5.00492 -4.63898 5.71584
head 3.05832 -2.31339 2.33068
lclavicle -2.01932e-14 -1.75548e-15 -7.13136e-30
lhumerus 21.7547 -32.1834 64.834
lradius 91.9505 -0 0
lwrist 39.8008 0 0
lhand -25.0661 26.2185 -1.54542
lfingers 7.12502 -0 0
lthumb 1.44225 55.8443 -1.51436
rclavicle -2.01932e-14 -1.75548e-15 -7.13136e-30
rhumerus 3.21036 26.7381 -62.3679
rradius 88.3235 -0 0
rwrist -22.208 0 0
rhand -27.6982 -46.5122 -0.358893
rfingers 7.12502 -0 0
rthumb -1.09171 -76.2525 -0.358715
1127
root 0.746331 14.4749 -27.0898 1.51487 6.48958 4.03173
lfemur -24.0313 11.2419 -20.7549
ltibia 67.4035 -0 0
lfoot -25.8803 29.7181 -0.142547
ltoes -14.3197 0 0
rfemur -45.4389 -12.2437 11.0474
rtibia 82.3874 -0 0
rfoot -3.83534 -0.983507 0.405568
rtoes -9.92518 0 0
lowerback 13.9033 1.76723 -9.89989
upperback -0.616773 0.77958 0.671977
thorax -8.6585 0.845371 6.22791
lowerneck -4.40377 -4.05294 -6.02362
upperneck 5.2121 -5.38469 6.11593
head 3.16273 -2.68421 2.48916
lclavicle -1.54535e-14 -8.19228e-16 -7.28719e-30
lhumerus 15.7839 -32.9716 67.9691
lradius 92.8852 -0 0
lwrist 40.625 0 0
lhand -24.1391 25.1717 -1.57951
lfingers 7.12502 -0 0
lthumb 2.33715 54.782 -1.54775
rclavicle -1.54535e-14 -8.19228e-16 -7.28719e-30
rhumerus 7.8186 25.6408 -59.2876
rradius 88.4597 -0 0
rwrist -19.839 0 0
rhand -28.4589 -46.2178 -0.366761
rfingers 7.12502 -0 0
rthumb -1.82618 -75.9478 -0.366577
1128
root 0.698606 14.4689 -26.7966 1.11527 7.93331 4.18342
lfemur -22.1251 10.928 -20.2458
ltibia 66.6503 -0 0
lfoot -26.1528 30.0415 -0.144087
ltoes -14.3528 0 0
rfemur -45.5786 -12.2858 10.5139
rtibia 80.666 -0 0
rfoot -3.3308 -0.485741 0.409957
rtoes -9.4628 0 0
lowerback 13.8382 1.89435 -9.99035
upperback -0.574557 0.931946 0.531783
thorax -8.60197 0.914821 6.09245
lowerneck -4.19641 -4.60124 -6.50644
upperneck 5.41576 -6.13722 6.5167
head 3.26688 -3.05796 2.64814
lclavicle -1.06795e-14 1.23774e-16 -7.36585e-30
lhumerus 9.68216 -33.4812 71.2322
lradius 93.8267 -0 0
lwrist 41.4552 0 0
lhand -23.205 24.117 -1.59672
lfingers 7.12502 -0 0
lthumb 3.23898 53.7117 -1.56462
rclavicle -1.06795e-14 1.23774e-16 -7.36585e-30
rhumerus 12.3426 24.3174 -56.3232
rradius 88.5968 -0 0
rwrist -17.453 0 0
rhand -29.2252 -45.9212 -0.370733
rfingers 7.12502 -0 0
rthumb -2.56598 -75.6407 -0.370547
1129
root 0.650764 14.4629 -26.5028 0.71706 9.3815 4.32582
lfemur -20.2194 10.5969 -19.747
ltibia 65.8953 -0 0
lfoot -26.426 30.3656 -0.144087
ltoes -14.3861 0 0
rfemur -45.7182 -12.3293 9.97912
rtibia 78.9404 -0 0
rfoot -2.82504 0.0132313 0.409957
rtoes -8.99931 0 0
lowerback 13.7726 2.02166 -10.0812
upperback -0.532613 1.08478 0.391361
thorax -8.54548 0.984571 5.95673
lowerneck -3.98374 -5.14908 -6.99282
upperneck 5.61488 -6.89294 6.91632
head 3.37027 -3.4329 2.80688
lclavicle -5.89418e-15 1.06903e-15 -7.36585e-30
lhumerus 3.51522 -33.6967 74.5634
lradius 94.7703 -0 0
lwrist 42.2873 0 0
lhand -22.2685 23.0596 -1.59672
lfingers 7.12502 -0 0
lthumb 4.14313 52.6386 -1.56462
rclavicle -5.89418e-15 1.06903e-15 -7.36585e-30
rhumerus 16.7481 22.7853 -53.5064
rradius 88.7343 -0 0
rwrist -15.0613 0 0
rhand -29.9934 -45.6238 -0.370733
rfingers 7.12502 -0 0
rthumb -3.30756 -75.333 -0.370547
1130
root 0.603035 14.4568 -26.2097 0.321658 10.8272 4.45831
lfemur -18.3232 10.2505 -19.2614
ltibia 65.1421 -0 0
lfoot -26.6985 30.689 -0.142547
ltoes -14.4192 0 0
rfemur -45.8571 -12.374 9.44566
rtibia 77.219 -0 0
rfoot -2.3205 0.510997 0.405568
rtoes -8.53693 0 0
lowerback 13.7071 2.14857 -10.1719
upperback -0.49114 1.23735 0.251378
thorax -8.48929 1.05429 5.8214
lowerneck -3.76673 -5.6938 -7.4805
upperneck 5.80856 -7.64822 7.31301
head 3.47243 -3.80722 2.96462
lclavicle -1.12024e-15 2.01203e-15 -7.28719e-30
lhumerus -2.64635 -33.613 77.8978
lradius 95.7118 -0 0
lwrist 43.1175 0 0
lhand -21.3344 22.0049 -1.57951
lfingers 7.12502 -0 0
lthumb 5.04496 51.5683 -1.54775
rclavicle -1.12024e-15 2.01203e-15 -7.28719e-30
rhumerus 21.0077 21.0665 -50.862
rradius 88.8714 -0 0
rwrist -12.6753 0 0
rhand -30.7597 -45.3272 -0.366761
rfingers 7.12502 -0 0
rthumb -4.04736 -75.0259 -0.366577
1131
root 0.555645 14.4509 -25.9187 -0.0695516 12.2634 4.58042
lfemur -16.4457 9.89121 -18.7915
ltibia 64.3942 -0 0
lfoot -26.9691 31.0101 -0.139496
ltoes -14.4521 0 0
rfemur -45.9946 -12.4196 8.91604
rtibia 75.5099 -0 0
rfoot -1.81962 1.00514 0.396875
rtoes -8.07786 0 0
lowerback 13.6418 2.27446 -10.2622
upperback -0.45033 1.38893 0.112497
thorax -8.43366 1.12364 5.68711
lowerneck -3.54646 -6.23278 -7.96722
upperneck 5.99597 -8.39938 7.70505
head 3.57288 -4.17917 3.12066
lclavicle 3.61954e-15 2.94828e-15 -7.13136e-30
lhumerus -8.73164 -33.2364 81.17
lradius 96.6465 -0 0
lwrist 43.9417 0 0
lhand -20.4074 20.9581 -1.54542
lfingers 7.12502 -0 0
lthumb 5.93986 50.506 -1.51436
rclavicle 3.61954e-15 2.94828e-15 -7.13136e-30
rhumerus 25.1011 19.1872 -48.4073
rradius 89.0076 -0 0
rwrist -10.3063 0 0
rhand -31.5204 -45.0328 -0.358893
rfingers 7.12502 -0 0
rthumb -4.78183 -74.7212 -0.358715
